<svg xmlns="http://www.w3.org/2000/svg" viewBox="0 0 396.77 92.57"><defs><style>.cls-1{fill:#7dc4aa;}.cls-2{fill:#1c4178;}.cls-3{fill:#67bfca;}.cls-4{fill:#4c8dc5;}.cls-5{fill:#4d6cb0;}.cls-6{fill:#58bbdb;}.cls-7{fill:#5dbcd5;}.cls-8{fill:#5fbdd4;}.cls-9{fill:#54badd;}.cls-10{fill:#4c7dbb;}.cls-11{fill:#4cb4dc;}.cls-12{fill:#4e5fa7;}.cls-13{fill:#53badd;}.cls-14{fill:#4ca1d2;}.cls-15{fill:#4e9fd0;}.cls-16{fill:#4c7ebc;}.cls-17{fill:#4bafda;}.cls-18{fill:#4dabd7;}.cls-19{fill:#4c8bc4;}.cls-20{fill:#4ea9d7;}</style></defs><g id="Layer_2" data-name="Layer 2"><g id="Layer_1-2" data-name="Layer 1"><path class="cls-1" d="M396.76,46.72c.6,24.39-20.53,45.67-46,45.61a46,46,0,0,1-45.95-46c0-24,20.09-45.54,46.41-45.43C375.88,1,397.05,21,396.76,46.72ZM350.94,18.83c-13.46-.44-27.73,10.9-27.72,28,0,15.54,13.48,27.73,27.56,27.74a28.1,28.1,0,0,0,27.69-27.92C378.64,30.7,364.4,18.17,350.94,18.83Z"/><path class="cls-2" d="M250.58,92.31a89.62,89.62,0,0,1-9-.06,9.71,9.71,0,0,1-8.44-10.36,9.89,9.89,0,0,1,9.51-9.31c3.76-.08,7.52,0,11.27,0a26,26,0,0,0,3.78-51.74c-3.86-.5-7.82-.22-11.73-.3a38.93,38.93,0,0,1-4.19-.15A9.91,9.91,0,0,1,243.07.64c5.27,0,10.57-.15,15.81.29a43.49,43.49,0,0,1,26.44,12,44.37,44.37,0,0,1,14.43,28.65,44.67,44.67,0,0,1-12.18,36.39A44.68,44.68,0,0,1,259,92.18c-2.77.31-5.58.27-8.38.39Z"/><path class="cls-3" d="M147.76.12c.47,0,1-.11,1.42-.11q14.32,0,28.64,0a21.71,21.71,0,0,1,22,22c0,2.91,0,5.83,0,8.75a24.66,24.66,0,0,1-6.65,17.32,4.27,4.27,0,0,1-.76.53,4.29,4.29,0,0,1-.48-.36q-5.11-5.2-10.2-10.44c-1.05-1.09-2-2.25-3-3.38a5.89,5.89,0,0,0,1.22-3.89c0-2.79,0-5.57,0-8.36,0-1.67-.52-2.18-2.22-2.18H167.4c-.47,0-.94-.07-1.41-.11a6.5,6.5,0,0,0-.79-1.42c-2-2.12-4-4.21-6-6.28-3.55-3.65-7.13-7.28-10.67-10.93A6.39,6.39,0,0,1,147.76.12Z"/><path class="cls-4" d="M64.8,45.52c0,3.59.08,7.19.06,10.78s0,7.23,2.31,10.43A12.52,12.52,0,0,0,86.48,68c.24-.26.52-.49.78-.73.76.79,1.52,1.6,2.3,2.39,3.56,3.65,7.13,7.28,10.68,10.94a7.68,7.68,0,0,1,.72,1A30.87,30.87,0,0,1,82.77,91.4a4.54,4.54,0,0,0-.6-1.23q-3.77-4.08-7.61-8.11c-2.9-3-5.84-6-8.76-9l-8.94-9.18-.25-.25c-3.5-3.66-7-7.33-10.52-11A3.11,3.11,0,0,0,45,52.22a7.52,7.52,0,0,1-.11-.94q0-12.24,0-24.48c0-.31.06-.63.09-.94a5.2,5.2,0,0,1,1.07.66c1.67,1.71,3.29,3.45,5,5.17,3.13,3.23,6.28,6.44,9.41,9.67,1,1,1.93,2.11,2.93,3.13A11,11,0,0,0,64.8,45.52Z"/><path class="cls-5" d="M53.47,84.07a31.83,31.83,0,0,1-14.4,7.17,5.51,5.51,0,0,1-.7.06,30.5,30.5,0,0,0-1.95-2.51C32.23,84.4,28,80.05,23.81,75.68s-8.23-8.56-12.36-12.83Q6.32,57.57,1.15,52.33A8.66,8.66,0,0,0,0,51.5V27.76a6.79,6.79,0,0,1,1.05.74c2.75,2.88,5.46,5.8,8.22,8.67,3.2,3.33,6.45,6.63,9.69,9.93a5.22,5.22,0,0,0,.87.57c0,3.74.06,7.49,0,11.23,0,5.06,2,9,6.43,11.48s8.85,2.18,13.13-.52a3.13,3.13,0,0,1,.32-.15c.33.28.68.54,1,.85q3.59,3.68,7.14,7.37c1.74,1.8,3.46,3.61,5.18,5.43A3.26,3.26,0,0,1,53.47,84.07Z"/><path class="cls-6" d="M147,72.08a11.63,11.63,0,0,1,1.3-.12h40.88c5.5,0,9.47,3.22,10.48,8.45a10,10,0,0,1-8.45,11.38c-1.06.11-2.14.16-3.22.17q-10.67,0-21.34,0c-.47,0-.94-.08-1.42-.12a4.26,4.26,0,0,0-.59-1.21c-2.07-2.21-4.17-4.38-6.28-6.55-3.56-3.65-7.13-7.28-10.68-10.94A5.81,5.81,0,0,1,147,72.08Z"/><path class="cls-7" d="M178.69,34.46c1,1.13,2,2.29,3,3.38q5.07,5.23,10.2,10.44a4.29,4.29,0,0,0,.48.36,22.7,22.7,0,0,1-13,6.91,32.54,32.54,0,0,1-5.12.42c-6.64.05-13.27,0-19.91,0A10,10,0,0,1,144,47.61c-1-5.33,3.1-11.06,8.49-11.42,4-.27,8.06-.17,12.1-.2,3.23,0,6.47-.07,9.71,0A5.71,5.71,0,0,0,178.69,34.46Z"/><path class="cls-8" d="M147.76.12a6.39,6.39,0,0,0,.75,1.16c3.54,3.65,7.12,7.28,10.67,10.93,2,2.07,4,4.16,6,6.28a6.5,6.5,0,0,1,.79,1.42c-.48,0-1,.1-1.42.11h-25.3c-2,0-2.36.34-2.38,2.37,0,3.07-.08,6.14-.12,9.21a4.56,4.56,0,0,1-1-.59c-2.39-2.51-4.73-5.07-7.12-7.57q-4.48-4.67-9-9.25a4.33,4.33,0,0,0-1.11-.58c3-7.21,8.35-11.8,16-13.07C138.85-.17,143.34.23,147.76.12Z"/><path class="cls-9" d="M118.53,13.61a4.33,4.33,0,0,1,1.11.58q4.55,4.59,9,9.25c2.39,2.5,4.73,5.06,7.12,7.57a4.56,4.56,0,0,0,1,.59,1.07,1.07,0,0,1,.09.34c0,6.9,0,13.8,0,20.69,0,3.39.05,6.78.07,10.16,0,.48-.08,1-.12,1.42a4.56,4.56,0,0,1-1-.59c-.69-.71-1.31-1.49-2-2.21-3.13-3.23-6.29-6.44-9.42-9.67-1-1-1.88-2.06-2.84-3.06-1.14-1.18-2.29-2.34-3.48-3.46a3.18,3.18,0,0,0-1-.43c0-.47-.12-.95-.12-1.42,0-5.66,0-11.33.11-17,0-2.9.08-5.8.35-8.68A20.46,20.46,0,0,1,118.53,13.61Z"/><path class="cls-10" d="M53.47,84.07a3.26,3.26,0,0,0-.4-.71c-1.72-1.82-3.44-3.63-5.18-5.43q-3.55-3.69-7.14-7.37c-.3-.31-.65-.57-1-.85,3.08-2.52,5-5.65,5.15-9.71.07-2.16,0-4.32,0-6.47,0-.44.06-.87.1-1.31a3.11,3.11,0,0,1,1.05.44c3.52,3.63,7,7.3,10.52,11l.25.25,8.94,9.18c2.92,3,5.86,6,8.76,9q3.85,4,7.61,8.11a4.54,4.54,0,0,1,.6,1.23,31.53,31.53,0,0,1-23.65-5.16c-1.46-1-2.78-2.14-4.24-3.27Z"/><path class="cls-11" d="M117,44.79a3.18,3.18,0,0,1,1,.43c1.19,1.12,2.34,2.28,3.48,3.46,1,1,1.87,2.06,2.84,3.06,3.13,3.23,6.29,6.44,9.42,9.67.69.72,1.31,1.5,2,2.21a4.56,4.56,0,0,0,1,.59,7.53,7.53,0,0,0,2.83,6A7.43,7.43,0,0,0,144.54,72c.83,0,1.66.07,2.49.11a5.81,5.81,0,0,0,.68,1.06c3.55,3.66,7.12,7.29,10.68,10.94,2.11,2.17,4.21,4.34,6.28,6.55a4.26,4.26,0,0,1,.59,1.21c-.95,0-1.9.11-2.84.11h-13c-.47,0-.94-.07-1.41-.11a21.47,21.47,0,0,0-1.91-2.76c-4.68-4.9-9.41-9.75-14.12-14.63-1.52-1.57-3-3.19-4.53-4.76q-4.5-4.64-9-9.24a5.87,5.87,0,0,0-1.41-.8c0-1.7-.11-3.4-.11-5.11C116.9,51.29,117,48,117,44.79Z"/><path class="cls-12" d="M0,51.5a8.66,8.66,0,0,1,1.13.83q5.17,5.24,10.3,10.52,6.2,6.41,12.36,12.83C28,80.05,32.23,84.4,36.42,88.79a30.5,30.5,0,0,1,1.95,2.51,30.29,30.29,0,0,1-14.32-.49A32.14,32.14,0,0,1,.34,63.93C-.17,59.84.11,55.65,0,51.5Z"/><path class="cls-2" d="M234.83,24a13.53,13.53,0,1,1-27.06,0,13.53,13.53,0,0,1,27.06,0Z"/><path class="cls-2" d="M221.28,82.48a13.51,13.51,0,1,1,13.55-13.21A13.36,13.36,0,0,1,221.28,82.48Z"/><path class="cls-13" d="M90,20.57c0-3.75-.12-7.51,0-11.25a9.94,9.94,0,0,1,19.61-1.51,9.07,9.07,0,0,1,.25,2q0,15.09,0,30.18a3.73,3.73,0,0,1,0,.47,6.51,6.51,0,0,1-1-.74c-1.36-1.4-2.67-2.84-4-4.24-3.5-3.6-7-7.19-10.53-10.79-.56-.57-1-1.23-1.59-1.78C91.77,22.11,90.86,21.35,90,20.57Z"/><path class="cls-14" d="M101,81.68a7.68,7.68,0,0,0-.72-1C96.69,77,93.12,73.35,89.56,69.7c-.78-.79-1.54-1.6-2.3-2.39A14.94,14.94,0,0,0,90,57.84c-.1-5.63,0-11.26,0-16.89a4.94,4.94,0,0,1,1.2.66c1.31,1.33,2.56,2.73,3.86,4.07,3.36,3.46,6.74,6.9,10.11,10.36.71.74,1.35,1.57,2.08,2.29s1.7,1.53,2.55,2.29a31.19,31.19,0,0,1-5.85,17.5C103,79.38,102,80.5,101,81.68Z"/><path class="cls-15" d="M64.8,45.52a11,11,0,0,1-1.4-1c-1-1-1.93-2.11-2.93-3.13-3.13-3.23-6.28-6.44-9.41-9.67-1.67-1.72-3.29-3.46-5-5.17A5.2,5.2,0,0,0,45,25.86c0-.51-.11-1-.11-1.54,0-4.65,0-9.31,0-14a9.39,9.39,0,0,1,2.31-6.58,4.17,4.17,0,0,0,.55,1.12c3.46,3.57,7,7.12,10.42,10.68,1.77,1.83,3.5,3.7,5.29,5.5a4.9,4.9,0,0,0,1.3.7,7.31,7.31,0,0,1,.11.94q0,10.94,0,21.86A7.31,7.31,0,0,1,64.8,45.52Z"/><path class="cls-16" d="M19.85,47.67A5.22,5.22,0,0,1,19,47.1c-3.24-3.3-6.49-6.6-9.69-9.93C6.53,34.3,3.82,31.38,1.07,28.5a6.79,6.79,0,0,0-1-.74C0,21.64,0,15.52,0,9.4a13.28,13.28,0,0,1,.7-3,5,5,0,0,1,1.2.65C3.3,8.38,4.64,9.75,6,11.1c1.63,1.62,3.29,3.23,4.89,4.89,2.66,2.78,5.28,5.61,7.94,8.39a6.65,6.65,0,0,0,1.05.75Q19.86,36.4,19.85,47.67Z"/><path class="cls-17" d="M109.78,60.62c-.85-.76-1.74-1.49-2.55-2.29s-1.37-1.55-2.08-2.29c-3.37-3.46-6.75-6.9-10.11-10.36-1.3-1.34-2.55-2.74-3.86-4.07A4.94,4.94,0,0,0,90,41V20.57c.88.78,1.79,1.54,2.64,2.35.57.55,1,1.21,1.59,1.78,3.5,3.6,7,7.19,10.53,10.79,1.36,1.4,2.67,2.84,4,4.24a6.51,6.51,0,0,0,1,.74Z"/><path class="cls-18" d="M117,59.65a5.87,5.87,0,0,1,1.41.8q4.55,4.59,9,9.24c1.52,1.57,3,3.19,4.53,4.76,4.71,4.88,9.44,9.73,14.12,14.63A21.47,21.47,0,0,1,148,91.84c-10.37.88-20.83-3.07-27.13-13.32a28.08,28.08,0,0,1-4-15C116.89,62.19,117,60.92,117,59.65Z"/><path class="cls-19" d="M19.86,25.13a6.65,6.65,0,0,1-1.05-.75c-2.66-2.78-5.28-5.61-7.94-8.39C9.27,14.33,7.61,12.72,6,11.1c-1.34-1.35-2.68-2.72-4.05-4a5,5,0,0,0-1.2-.65A9.61,9.61,0,0,1,10.18.07,9.84,9.84,0,0,1,19.64,7.8a7.24,7.24,0,0,1,.22,1.53C19.87,14.6,19.86,19.86,19.86,25.13Z"/><path class="cls-20" d="M64.8,21.78a4.9,4.9,0,0,1-1.3-.7c-1.79-1.8-3.52-3.67-5.29-5.5C54.74,12,51.25,8.47,47.79,4.9a4.17,4.17,0,0,1-.55-1.12A9.75,9.75,0,0,1,57.75.47c3.72,1.05,6.81,4.5,7,8.28C64.92,13.08,64.79,17.43,64.8,21.78Z"/></g></g></svg>