<svg xmlns="http://www.w3.org/2000/svg" viewBox="0 0 267.92 259.46"><defs><style>.cls-1{fill:#1c4178;}.cls-2{fill:#7ec4a9;}.cls-3{fill:#6fc0bf;}.cls-4{fill:#65becb;}.cls-5{fill:#4c7cbb;}.cls-6{fill:#5ebcd4;}.cls-7{fill:#56bbdc;}.cls-8{fill:#4bb3dc;}.cls-9{fill:#4b8bc4;}.cls-10{fill:#5ebcd3;}.cls-11{fill:#4c9ed0;}.cls-12{fill:#58bbda;}.cls-13{fill:#76c2b4;}.cls-14{fill:#4d7bba;}.cls-15{fill:#4dabd8;}.cls-16{fill:#55bbde;}.cls-17{fill:#4d62a9;}.cls-18{fill:#4f59a3;}.cls-19{fill:#4d70b3;}.cls-20{fill:#4e5ea7;}.cls-21{fill:#4d67ad;}.cls-22{fill:#4da7d5;}.cls-23{fill:#4c92c9;}.cls-24{fill:#4c86c1;}.cls-25{fill:#4ca3d3;}.cls-26{fill:#4eb7de;}</style></defs><g id="Layer_2" data-name="Layer 2"><g id="Layer_1-2" data-name="Layer 1"><path class="cls-1" d="M64.32,136.35c7.38-.36,14.74,0,21.82,2.23,23.88,7.61,38.91,23.61,43.63,48.26,4,20.79-2.07,39.11-16.79,54.3a59.13,59.13,0,0,1-35.57,17.69c-7.72,1-15.49.47-23.24.54a11.9,11.9,0,0,1-2.37-.29,13.24,13.24,0,0,1-10.52-13.91c.31-6.3,5.35-11.85,11.68-12.26,5.57-.37,11.19-.2,16.78-.22a33,33,0,0,0,11.6-2.12,34.88,34.88,0,0,0-7.25-67.32,51.89,51.89,0,0,0-6-.4c-4.6-.06-9.2,0-13.8,0a13.19,13.19,0,0,1-13-12.22c-.4-7.31,4.53-13.58,11.52-14.2C56.62,136.08,60.48,136.35,64.32,136.35Z"/><path class="cls-2" d="M150,160.84c2.84-3.08,5.46-6.4,8.57-9.18a59,59,0,0,1,29.12-14,64.17,64.17,0,0,1,18.36-.63,58.33,58.33,0,0,1,21.65,6.5,60.93,60.93,0,0,1,19.58,15.94,59.38,59.38,0,0,1,12.4,27.44,62.69,62.69,0,0,1-2.39,31.42,59.28,59.28,0,0,1-14.2,22.38C240.89,243,238.43,245,236,247a10.32,10.32,0,0,1-1.75,1c-.65-.62-1.32-1.23-2-1.87a34.07,34.07,0,0,1-3.46-3.55,14.31,14.31,0,0,0-3.52-3.51,2.88,2.88,0,0,1-.47-.51c-1.63-1.76-3.32-3.47-4.86-5.3-.83-1-2.31-1.5-2.33-3.08.22-.17.43-.36.66-.51a39,39,0,0,0,9.83-8.86,37.43,37.43,0,0,0,7.48-28.5,36.13,36.13,0,0,0-10.95-21.1c-8.39-8.22-18.5-11.9-30.26-10.38-9.92,1.29-17.95,6.07-24.25,13.79-1.08,1.32-2.06,2.71-3.09,4.07-.54-.51-1.11-1-1.61-1.54-.93-1-1.78-2.08-2.73-3-1.84-1.87-3.73-3.69-5.6-5.54-1-1-2.07-2-3-3C152.73,164,151.38,162.42,150,160.84Z"/><path class="cls-3" d="M211,258a63.7,63.7,0,0,1-15.71,1,58.1,58.1,0,0,1-32-11.11,60.09,60.09,0,0,1-14.79-14.54A61.51,61.51,0,0,1,138,206.52a68.12,68.12,0,0,1,.53-21.09c.06-.35.19-.69.28-1a6,6,0,0,1,1.28.75c2.57,2.61,5.08,5.27,7.67,7.86,1.06,1.07,2.34,1.93,3.36,3,1.53,1.65,2.85,3.5,4.36,5.17,1.88,2.07,3.89,4,5.8,6.07a2,2,0,0,0,2.08.83c.19.52.39,1,.57,1.57a39.1,39.1,0,0,0,11,16.29,40.42,40.42,0,0,0,12.34,7.42c.05.15.05.36.16.44,1.36,1.12,2.74,2.22,4.09,3.35a5,5,0,0,1,.78,1,24.78,24.78,0,0,0,1.64,2.24c.58.64,1.36,1.08,2,1.68.93.9,1.8,1.87,2.73,2.79s1.89,1.73,2.76,2.67c2.23,2.43,4.39,4.92,6.62,7.34.66.72,1.49,1.28,2.19,2A7.32,7.32,0,0,1,211,258Z"/><path class="cls-4" d="M241.27,35.1c0-2,0-3.9,0-5.84a2.31,2.31,0,0,0-2.57-2.59l-6.79-.06a3.8,3.8,0,0,0-.45-1.17c-.95-1.11-1.95-2.17-3-3.23-2.27-2.37-4.58-4.71-6.84-7.09-1.53-1.62-3-3.32-4.51-4.93-2.18-2.26-4.43-4.46-6.62-6.71-1.07-1.1-2.07-2.27-3.1-3.41q9.71,0,19.41,0c4.36,0,8.72-.08,13.07,0A28.8,28.8,0,0,1,267.1,22.3a33.91,33.91,0,0,1,.74,6.51c.1,4.64.09,9.28,0,13.91a29.39,29.39,0,0,1-3.61,14c-.58-.13-1.31,1.07-1.69,0-.52-1.46-2-1.81-2.87-2.84-1-1.19-2.3-2.14-3.38-3.28s-1.91-2.22-2.84-3.37c-.78-1-1.51-2-2.29-2.94a2.58,2.58,0,0,0-.77-.51,4.81,4.81,0,0,1-.81-.44c-1.93-1.91-3.87-3.82-5.77-5.76a5.51,5.51,0,0,1-1-1.44C242.49,35.44,242.08,35,241.27,35.1Z"/><path class="cls-5" d="M59.05,86.22a25,25,0,0,0,1.26-9.41c0-5.5,0-11,0-16.5a5.05,5.05,0,0,1,1.18.68q3.8,3.73,7.52,7.52c.94.95,1.84,1.95,2.73,2.95s1.91,2.33,3,3.41c2.26,2.32,4.6,4.56,6.85,6.89,2.81,2.9,5.53,5.87,8.34,8.75a7,7,0,0,0,1.82,1l.7.69a5.92,5.92,0,0,0,.71,1.57c1,1.12,2.12,2.12,3.16,3.21,3,3.18,6,6.39,9.09,9.55,3.71,3.84,7.49,7.62,11.18,11.47a18.94,18.94,0,0,1,1.78,2.6,37.21,37.21,0,0,1-15.56,2.54c-3.31-.17-6.6-.91-9.9-1.39A7.07,7.07,0,0,0,92,119.9c-1-1.11-2.19-2.06-3.22-3.15-1.38-1.45-2.65-3-4.05-4.46-2.16-2.25-4.41-4.42-6.58-6.67-2.49-2.57-4.91-5.2-7.38-7.79-.46-.48-1.06-.85-1.51-1.34C67.86,95,66.5,93.42,65.1,91.9S62.43,89,61,87.67A16.09,16.09,0,0,0,59.05,86.22Z"/><path class="cls-6" d="M207.39.07c1,1.14,2,2.31,3.1,3.41,2.19,2.25,4.44,4.45,6.62,6.71,1.54,1.61,3,3.31,4.51,4.93,2.26,2.38,4.57,4.72,6.84,7.09,1,1.06,2,2.12,3,3.23a3.8,3.8,0,0,1,.45,1.17c-.52,0-1,.05-1.56.05H186.89c-.68,0-1.36.07-2,.11a7.24,7.24,0,0,0-1-1.82c-2-2-4-3.89-6-5.88s-3.7-3.79-5.51-5.73c-1.18-1.27-2.25-2.65-3.45-3.91a28.83,28.83,0,0,0-2.41-2A27.43,27.43,0,0,1,181.62.31,31.35,31.35,0,0,1,186.16,0C193.24,0,200.31.05,207.39.07Z"/><path class="cls-7" d="M208.35,96.56c.88,0,1.75,0,2.63,0,14.72,0,29.44,0,44.15,0a13.27,13.27,0,0,1,5.39,25.15,13.34,13.34,0,0,1-5,1.39c-7.32.14-14.64.05-22,.05a7.17,7.17,0,0,0-.85-1.39c-1.87-1.93-3.82-3.8-5.69-5.74-1.3-1.36-2.46-2.85-3.77-4.21-1.94-2-4-4-5.93-6s-3.75-4.09-5.66-6.1C210.59,98.63,209.45,97.61,208.35,96.56Z"/><path class="cls-7" d="M166.48,7.43a28.83,28.83,0,0,1,2.41,2c1.2,1.26,2.27,2.64,3.45,3.91,1.81,1.94,3.63,3.86,5.51,5.73s4.05,3.88,6,5.88a7.24,7.24,0,0,1,1,1.82,3.06,3.06,0,0,0-1.45,2.94q0,18.47,0,37c0,.51,0,1,0,1.55a4.8,4.8,0,0,1-1.22-.68c-1.86-2-3.65-4-5.52-6-5.06-5.26-10.16-10.48-15.23-15.72-1-1-1.87-2.08-2.88-3a8.81,8.81,0,0,0-1.68-1c.08-6.37-.69-12.79.65-19.1A27.17,27.17,0,0,1,166.48,7.43Z"/><path class="cls-1" d="M25.4,149.55A18.13,18.13,0,1,1,7.26,167.38,18,18,0,0,1,25.4,149.55Z"/><path class="cls-1" d="M43.5,228a18.12,18.12,0,1,1-36.24-.38c0-9.74,8.26-17.77,18.24-17.75A18.11,18.11,0,0,1,43.5,228Z"/><path class="cls-8" d="M208.35,96.56c1.1,1,2.24,2.07,3.29,3.17,1.91,2,3.74,4.1,5.66,6.1s4,4,5.93,6c1.31,1.36,2.47,2.85,3.77,4.21,1.87,1.94,3.82,3.81,5.69,5.74a7.17,7.17,0,0,1,.85,1.39H211a4.72,4.72,0,0,0-.59-1.35c-.41-.46-1.05-.73-1.48-1.18-1.84-1.91-3.63-3.86-5.45-5.78-.54-.57-1.13-1.1-1.67-1.68-2.54-2.69-5.08-5.4-7.62-8.1-.27-.29-.55-.57-.83-.86l-9.17-9.61c-1.4-1.46-2.78-2.91-4.19-4.35q-3.66-3.75-7.33-7.47c-1.49-1.51-3-3-4.5-4.5-2.7-2.87-5.34-5.8-8-8.69A18.23,18.23,0,0,1,158.42,68a1.53,1.53,0,0,0-1.59-.77V56.94l.31-.24-.31-.24c0-1.44,0-2.88,0-4.32a6.36,6.36,0,0,1,1.26.78c3.69,3.81,7.35,7.65,11,11.48,1.18,1.23,2.34,2.49,3.54,3.71q4.76,4.88,9.55,9.74a13.11,13.11,0,0,0,1.16.93c0,2.44.1,4.88,0,7.31A10.5,10.5,0,0,0,192,96.47a23.64,23.64,0,0,0,4.38.12C200.36,96.6,204.35,96.57,208.35,96.56Z"/><path class="cls-9" d="M91.74,91.49a7,7,0,0,1-1.82-1c-2.81-2.88-5.53-5.85-8.34-8.75-2.25-2.33-4.59-4.57-6.85-6.89-1-1.08-2-2.29-3-3.41s-1.79-2-2.73-2.95Q65.32,64.73,61.53,61a5.05,5.05,0,0,0-1.18-.68c0-.24-.05-.48-.05-.72V24.06c0-.24,0-.48.05-.72a7.17,7.17,0,0,1,1.56,1c1,1,1.86,2.14,2.85,3.16,2.2,2.25,4.47,4.42,6.65,6.68,3.28,3.39,6.51,6.82,9.77,10.23,1.53,1.61,3,3.23,4.6,4.81a3.73,3.73,0,0,0,1.11.56q0,13.24,0,26.48c0,1.55,0,3.12.07,4.67A17.17,17.17,0,0,0,91.74,91.49Z"/><path class="cls-10" d="M241.27,35.1c.81-.12,1.22.34,1.56,1a5.51,5.51,0,0,0,1,1.44c1.9,1.94,3.84,3.85,5.77,5.76a4.81,4.81,0,0,0,.81.44,2.58,2.58,0,0,1,.77.51c.78,1,1.51,2,2.29,2.94.93,1.15,1.83,2.31,2.84,3.37s2.37,2.09,3.38,3.28c.88,1,2.35,1.38,2.87,2.84.38,1.08,1.11-.12,1.69,0a76.69,76.69,0,0,1-5.16,7.47,31.42,31.42,0,0,1-18.84,10.29c-.86.14-1.74.17-2.61.25a5.75,5.75,0,0,0-.67-1.16c-.5-.55-1.12-1-1.64-1.52-.9-.94-1.73-1.94-2.64-2.87-2.74-2.77-5.5-5.51-8.25-8.28-.72-.72-1.43-1.46-2.13-2.21-1.57-1.68-3.13-3.38-4.7-5.06-1.4-1.51-2.83-3-4.23-4.52-.16-.18-.15-.52-.22-.78l21.09,0c4.26,0,7-2.71,7-6.94C241.23,39.25,241.25,37.17,241.27,35.1Z"/><path class="cls-11" d="M86.89,49.74a3.73,3.73,0,0,1-1.11-.56c-1.56-1.58-3.07-3.2-4.6-4.81-3.26-3.41-6.49-6.84-9.77-10.23-2.18-2.26-4.45-4.43-6.65-6.68-1-1-1.85-2.16-2.85-3.16a7.17,7.17,0,0,0-1.56-1c.06-4.46-.6-9,.41-13.37a13.28,13.28,0,0,1,26.13,2.72C87,25,86.9,37.39,86.89,49.74Z"/><path class="cls-12" d="M213.15,48.31c.07.26.06.6.22.78,1.4,1.52,2.83,3,4.23,4.52,1.57,1.68,3.13,3.38,4.7,5.06.7.75,1.41,1.49,2.13,2.21,2.75,2.77,5.51,5.51,8.25,8.28.91.93,1.74,1.93,2.64,2.87.52.53,1.14,1,1.64,1.52a5.75,5.75,0,0,1,.67,1.16l-2.18.16-.21,0-10.8,0c-5.92,0-11.84,0-17.75,0a13.33,13.33,0,0,1-1.22-26.63C208,48.24,210.59,48.31,213.15,48.31Z"/><path class="cls-13" d="M163.35,208.12a2,2,0,0,1-2.08-.83c-1.91-2-3.92-4-5.8-6.07-1.51-1.67-2.83-3.52-4.36-5.17-1-1.11-2.3-2-3.36-3-2.59-2.59-5.1-5.25-7.67-7.86a6,6,0,0,0-1.28-.75,57.14,57.14,0,0,1,10.37-22.57c.26-.34.56-.66.84-1,1.37,1.58,2.72,3.18,4.13,4.72,1,1.05,2,2,3,3,1.87,1.85,3.76,3.67,5.6,5.54.95,1,1.8,2,2.73,3,.5.55,1.07,1,1.61,1.54a13.71,13.71,0,0,1-.64,1.53A38,38,0,0,0,162,197.58,39.43,39.43,0,0,0,163.35,208.12Z"/><path class="cls-13" d="M211,258a7.32,7.32,0,0,0-.8-1.17c-.7-.68-1.53-1.24-2.19-2-2.23-2.42-4.39-4.91-6.62-7.34-.87-.94-1.86-1.77-2.76-2.67s-1.8-1.89-2.73-2.79c-.63-.6-1.41-1-2-1.68a24.78,24.78,0,0,1-1.64-2.24,5,5,0,0,0-.78-1c-1.35-1.13-2.73-2.23-4.09-3.35-.11-.08-.11-.29-.16-.44a2.11,2.11,0,0,1,.35,0,34.48,34.48,0,0,0,23.86-.31c2.15-.81,4.17-1.95,6.25-2.94,0,1.58,1.5,2.1,2.33,3.08,1.54,1.83,3.23,3.54,4.86,5.3a2.88,2.88,0,0,0,.47.51,14.31,14.31,0,0,1,3.52,3.51,34.07,34.07,0,0,0,3.46,3.55c.64.64,1.31,1.25,2,1.87-6.56,4.52-13.54,8.11-21.43,9.71C212.24,257.85,211.61,257.92,211,258Z"/><path class="cls-14" d="M0,26.46c0-4.84-.1-9.68.06-14.52A10.75,10.75,0,0,1,2.91,5.1C4.52,6.67,6.16,8.21,7.72,9.83s3.16,3.52,4.79,5.22c2,2.12,4.18,4.14,6.22,6.26S22.87,25.8,25,28a5.83,5.83,0,0,0,1.62.87V53.1a7.41,7.41,0,0,1-1.47-1c-2.58-2.68-5.08-5.43-7.67-8.1-3-3.09-6.1-6.09-9.1-9.17C6.19,32.63,4.08,30.3,1.93,28c-.11-.11-.28-.22-.31-.35C1.44,26.77.76,26.58,0,26.46Z"/><path class="cls-11" d="M147.13,81.9a39.93,39.93,0,0,1-5.46,19c-1.73-1.62-3.54-3.17-5.18-4.88s-3-3.48-4.55-5.17c-.8-.87-1.79-1.57-2.62-2.42-2.68-2.71-5.32-5.46-8-8.18a1.83,1.83,0,0,0-.64-.26c0-1.51-.09-3-.1-4.52q0-9.57,0-19.13a3.11,3.11,0,0,1,.11-.58,7,7,0,0,1,1.49.87c1.46,1.45,2.84,3,4.26,4.46,2.1,2.19,4.19,4.38,6.3,6.55q5.1,5.22,10.2,10.44c.65.67,1.22,1.44,1.92,2.07S146.37,81.32,147.13,81.9Z"/><path class="cls-15" d="M156.83,67.26a1.53,1.53,0,0,1,1.59.77,18.23,18.23,0,0,0,1.71,1.55c2.69,2.89,5.33,5.82,8,8.69,1.46,1.55,3,3,4.5,4.5q3.68,3.72,7.33,7.47c1.41,1.44,2.79,2.89,4.19,4.35l9.17,9.61c.28.29.56.57.83.86,2.54,2.7,5.08,5.41,7.62,8.1.54.58,1.13,1.11,1.67,1.68,1.82,1.92,3.61,3.87,5.45,5.78.43.45,1.07.72,1.48,1.18a4.72,4.72,0,0,1,.59,1.35H200a3.26,3.26,0,0,0-.4-.71c-2.05-2.14-4.09-4.29-6.16-6.4s-4.45-4.44-6.65-6.68-4.18-4.34-6.28-6.5c-3.12-3.21-6.27-6.4-9.38-9.64-1-1-1.75-2.15-2.71-3.15-1.88-1.95-3.83-3.83-5.73-5.76-1.23-1.25-2.36-2.6-3.62-3.82A16.63,16.63,0,0,0,156.84,79Q156.84,73.14,156.83,67.26Z"/><path class="cls-16" d="M120.78,11.1A13.35,13.35,0,0,1,147,10.79a13,13,0,0,1,.26,2.49q0,11.76,0,23.52a7.75,7.75,0,0,1-.11.94,4.56,4.56,0,0,1-1-.59c-1.5-1.46-3-2.92-4.45-4.44S139,29.56,137.56,28c-2.55-2.68-5.15-5.32-7.72-8s-5.33-5.5-8-8.24A7,7,0,0,0,120.78,11.1Z"/><path class="cls-17" d="M57.87,120.57l-7.42,2c-.48-.54-1-1.1-1.45-1.63-1.76-1.92-3.49-3.87-5.29-5.75-2.61-2.74-5.28-5.44-7.91-8.17-1.77-1.83-3.49-3.69-5.28-5.5-1.33-1.34-2.8-2.57-4.12-3.93-1.82-1.89-3.54-3.87-5.33-5.77-1.23-1.3-2.54-2.52-3.78-3.8L7.94,78.18l-.83-.86c-1.86-1.92-3.69-3.87-5.59-5.75A5.14,5.14,0,0,0,0,70.86V60.54a5.16,5.16,0,0,1,1.21.64C2.56,62.44,3.83,63.75,5.12,65c2.61,2.61,5.25,5.2,7.83,7.86,1.57,1.62,3,3.37,4.58,5,.95,1,2,1.86,3,2.85,1.88,1.95,3.73,3.93,5.52,5.95,1.32,1.49,3.09,2.54,4.08,4.38.26.48,1.19.61,1.81.89l1.2,1a2.83,2.83,0,0,0,.26,1c1,1.18,1.93,2.37,3,3.47,3.81,4,7.65,8,11.49,12,1.17,1.22,2.4,2.38,3.58,3.6,1.77,1.82,3.54,3.63,5.25,5.51A10.62,10.62,0,0,1,57.87,120.57Z"/><path class="cls-18" d="M41.78,123.15A39.47,39.47,0,0,1,27,119.9C12.75,113.7,4,103,.78,87.79A48.75,48.75,0,0,1,.25,81.6C.19,80.9.11,80.2,0,79.5a4.06,4.06,0,0,1,.89.56c1.82,1.87,3.61,3.76,5.42,5.64s3.9,4,5.84,6.08q4.46,4.68,8.89,9.37c4.52,4.77,9,9.55,13.58,14.28,1.51,1.57,3.21,3,4.71,4.54A32.87,32.87,0,0,1,41.78,123.15Z"/><path class="cls-19" d="M0,26.46c.73.12,1.41.31,1.59,1.19,0,.13.2.24.31.35,2.15,2.3,4.26,4.63,6.45,6.88,3,3.08,6.09,6.08,9.1,9.17,2.59,2.67,5.09,5.42,7.67,8.1a7.41,7.41,0,0,0,1.47,1V73c-2.47-2.52-4.92-5.06-7.4-7.57-2.33-2.36-4.69-4.69-7-7-.73-.73-1.46-1.44-2.17-2.19C9,55.12,7.94,54,6.91,52.89s-2.15-2.53-3.34-3.67S1.22,47.32,0,46.38Z"/><path class="cls-19" d="M59.05,86.22a16.09,16.09,0,0,1,2,1.45c1.39,1.37,2.73,2.8,4.06,4.23s2.76,3.08,4.17,4.59c.45.49,1,.86,1.51,1.34,2.47,2.59,4.89,5.22,7.38,7.79,2.17,2.25,4.42,4.42,6.58,6.67,1.4,1.44,2.67,3,4.05,4.46,1,1.09,2.21,2,3.22,3.15a7.07,7.07,0,0,1,.89,1.83,39.68,39.68,0,0,1-13.79-6.24c-1.71-1.21-3.32-2.57-4.91-3.95-1-.87-1.37.06-1.94.5l-5,4a9.33,9.33,0,0,0-.71-1.06c-.94-1.06-1.92-2.09-2.87-3.14-1.48-1.63-2.87-3.36-4.46-4.87-2.08-2-4.38-3.74-6-6.16a20.9,20.9,0,0,0-2.27-2.24c-.83-.87-1.6-1.81-2.39-2.71a17.09,17.09,0,0,0,7.55-5C57.18,89.36,58.06,87.75,59.05,86.22Z"/><path class="cls-9" d="M118.36,120.58a18.94,18.94,0,0,0-1.78-2.6c-3.69-3.85-7.47-7.63-11.18-11.47-3.05-3.16-6.05-6.37-9.09-9.55-1-1.09-2.16-2.09-3.16-3.21a5.92,5.92,0,0,1-.71-1.57A17.42,17.42,0,0,0,105,96.5a16.58,16.58,0,0,0,8.35-3l1.18-.81a16.38,16.38,0,0,1,2.5,1.74c1.47,1.47,2.77,3.11,4.22,4.61,3.76,3.88,7.56,7.72,11.33,11.59a7.1,7.1,0,0,1,.66,1,47.41,47.41,0,0,1-12.34,8C120.06,120,119.2,120.26,118.36,120.58Z"/><path class="cls-8" d="M120.78,11.1a7,7,0,0,1,1,.73c2.68,2.74,5.34,5.49,8,8.24s5.17,5.29,7.72,8c1.44,1.52,2.77,3.15,4.21,4.67s2.95,3,4.45,4.44a4.56,4.56,0,0,0,1,.59c0,.95.1,1.9.1,2.85q0,6.63,0,13.25c0,.47-.08.94-.11,1.41a5.52,5.52,0,0,1-1.07-.67c-1.06-1.08-2-2.23-3.11-3.31q-4.86-5-9.76-10c-.44-.46-1-.81-1.41-1.28-3.4-3.67-6.78-7.36-10.19-11-.21-.23-.64-.25-1-.36,0-.87-.1-1.74-.11-2.61,0-3.74,0-7.48,0-11.22C120.6,13.55,120.72,12.33,120.78,11.1Z"/><path class="cls-20" d="M41.78,123.15A32.87,32.87,0,0,0,39.36,120c-1.5-1.58-3.2-3-4.71-4.54-4.55-4.73-9.06-9.51-13.58-14.28q-4.44-4.68-8.89-9.37c-1.94-2-3.89-4-5.84-6.08S2.74,81.93.92,80.06A4.06,4.06,0,0,0,0,79.5V70.86a5.14,5.14,0,0,1,1.49.71c1.9,1.88,3.73,3.83,5.59,5.75l.83.86L17.29,88c1.24,1.28,2.55,2.5,3.78,3.8,1.79,1.9,3.51,3.88,5.33,5.77,1.32,1.36,2.79,2.59,4.12,3.93,1.79,1.81,3.51,3.67,5.28,5.5,2.63,2.73,5.3,5.43,7.91,8.17,1.8,1.88,3.53,3.83,5.29,5.75.49.53,1,1.09,1.45,1.63Z"/><path class="cls-21" d="M0,46.38c1.19.94,2.45,1.8,3.54,2.84s2.22,2.45,3.34,3.67S9,55.12,10,56.22c.71.75,1.44,1.46,2.17,2.19,2.34,2.35,4.7,4.68,7,7,2.48,2.51,4.93,5,7.4,7.57,0,1.72.11,3.43,0,5.14A17.47,17.47,0,0,0,31.94,92c-.62-.28-1.55-.41-1.81-.89-1-1.84-2.76-2.89-4.08-4.38-1.79-2-3.64-4-5.52-5.95-1-1-2.05-1.85-3-2.85-1.56-1.64-3-3.39-4.58-5C10.37,70.24,7.73,67.65,5.12,65c-1.29-1.29-2.56-2.6-3.88-3.86A5.16,5.16,0,0,0,0,60.54Z"/><path class="cls-22" d="M147.13,81.9c-.76-.58-1.56-1.11-2.26-1.76s-1.27-1.4-1.92-2.07q-5.1-5.23-10.2-10.44c-2.11-2.17-4.2-4.36-6.3-6.55-1.42-1.48-2.8-3-4.26-4.46a7,7,0,0,0-1.49-.87c0-2-.11-4-.11-6.07,0-2.7.07-5.4.11-8.09a4.85,4.85,0,0,1,1.67.69c1.3,1.28,2.44,2.71,3.71,4,3.72,3.84,7.46,7.64,11.21,11.46,1.08,1.1,2.2,2.18,3.27,3.29,1.84,1.89,3.64,3.81,5.49,5.68a3.56,3.56,0,0,0,1.13.52c0,1.7,0,3.41,0,5.11C147.2,75.54,147.16,78.72,147.13,81.9Z"/><path class="cls-22" d="M156.84,79A16.63,16.63,0,0,1,159,80.49c1.26,1.22,2.39,2.57,3.62,3.82,1.9,1.93,3.85,3.81,5.73,5.76,1,1,1.75,2.15,2.71,3.15,3.11,3.24,6.26,6.43,9.38,9.64,2.1,2.16,4.17,4.35,6.28,6.5s4.45,4.43,6.65,6.68,4.11,4.26,6.16,6.4a3.26,3.26,0,0,1,.4.71l-9.84-.22a7.66,7.66,0,0,0-1-1.66c-1.5-1.48-3.16-2.81-4.61-4.33-2.67-2.79-5.19-5.72-7.85-8.52-2.9-3.07-5.88-6.07-8.84-9.09-.47-.48-1.07-.85-1.52-1.34-1.41-1.51-2.77-3.07-4.17-4.6-1.18-1.29-2.36-2.59-3.61-3.82a7.5,7.5,0,0,0-1.55-.93c-.06-2-.14-4-.17-5.93C156.77,81.48,156.82,80.25,156.84,79Z"/><path class="cls-23" d="M133.22,111.61a7.1,7.1,0,0,0-.66-1c-3.77-3.87-7.57-7.71-11.33-11.59-1.45-1.5-2.75-3.14-4.22-4.61a16.38,16.38,0,0,0-2.5-1.74,17.17,17.17,0,0,0,5.62-9.21c.26-1.16.38-2.35.57-3.52a1.83,1.83,0,0,1,.64.26c2.66,2.72,5.3,5.47,8,8.18.83.85,1.82,1.55,2.62,2.42,1.55,1.69,2.95,3.53,4.55,5.17s3.45,3.26,5.18,4.88A38.54,38.54,0,0,1,133.22,111.61Z"/><path class="cls-24" d="M26.62,28.86A5.83,5.83,0,0,1,25,28c-2.13-2.19-4.15-4.48-6.27-6.68s-4.18-4.14-6.22-6.26c-1.63-1.7-3.15-3.52-4.79-5.22S4.52,6.67,2.91,5.1A12.51,12.51,0,0,1,15.4.2c5.49.87,9.09,4.2,10.74,9.54a10,10,0,0,1,.47,2.82C26.65,18,26.63,23.43,26.62,28.86Z"/><path class="cls-15" d="M147.18,67.25a3.56,3.56,0,0,1-1.13-.52c-1.85-1.87-3.65-3.79-5.49-5.68-1.07-1.11-2.19-2.19-3.27-3.29-3.75-3.82-7.49-7.62-11.21-11.46-1.27-1.31-2.41-2.74-3.71-4a4.85,4.85,0,0,0-1.67-.69c0-2.58-.1-5.16-.11-7.74,0-1.75.07-3.49.1-5.24.33.11.76.13,1,.36,3.41,3.66,6.79,7.35,10.19,11,.43.47,1,.82,1.41,1.28q4.91,5,9.76,10c1.06,1.08,2,2.23,3.11,3.31a5.52,5.52,0,0,0,1.07.67c0,3.49.06,7,.07,10.46C147.28,66.22,147.21,66.73,147.18,67.25Z"/><path class="cls-21" d="M48.5,95.82c.79.9,1.56,1.84,2.39,2.71a20.9,20.9,0,0,1,2.27,2.24c1.65,2.42,4,4.18,6,6.16,1.59,1.51,3,3.24,4.46,4.87.95,1,1.93,2.08,2.87,3.14a9.33,9.33,0,0,1,.71,1.06q-4.11,2.13-8.23,4.24a6.12,6.12,0,0,1-1.13.33,10.62,10.62,0,0,0-1.17-2c-1.71-1.88-3.48-3.69-5.25-5.51-1.18-1.22-2.41-2.38-3.58-3.6-3.84-4-7.68-8-11.49-12-1.05-1.1-2-2.29-3-3.47a2.83,2.83,0,0,1-.26-1A17.25,17.25,0,0,0,48.5,95.82Z"/><path class="cls-25" d="M157,88.64a7.5,7.5,0,0,1,1.55.93c1.25,1.23,2.43,2.53,3.61,3.82,1.4,1.53,2.76,3.09,4.17,4.6.45.49,1.05.86,1.52,1.34,3,3,5.94,6,8.84,9.09,2.66,2.8,5.18,5.73,7.85,8.52,1.45,1.52,3.11,2.85,4.61,4.33a7.66,7.66,0,0,1,1,1.66,27.46,27.46,0,0,1-9.69-2.22c-10.86-4.5-18.29-12.3-22-23.54A26.59,26.59,0,0,1,157,88.64Z"/><path class="cls-26" d="M183.37,78.78a13.11,13.11,0,0,1-1.16-.93q-4.78-4.86-9.55-9.74c-1.2-1.22-2.36-2.48-3.54-3.71-3.67-3.83-7.33-7.67-11-11.48a6.36,6.36,0,0,0-1.26-.78q0-5.16,0-10.32a8.59,8.59,0,0,1,1.69,1c1,1,1.91,2,2.88,3,5.07,5.24,10.17,10.46,15.23,15.72,1.87,1.95,3.66,4,5.52,6a4.8,4.8,0,0,0,1.22.68Z"/><path class="cls-7" d="M156.83,56.46l.31.24-.31.24Z"/><path class="cls-10" d="M235.24,74.89l.21,0-.1,0Z"/></g></g></svg>